<svg width="16" height="21" viewBox="0 0 16 21" fill="none" xmlns="http://www.w3.org/2000/svg">
<path d="M15.7294 10.3188C15.7581 10.3368 15.7818 10.3618 15.7982 10.3914C15.8146 10.4211 15.8232 10.4544 15.8232 10.4883C15.8232 10.5222 15.8146 10.5555 15.7982 10.5852C15.7818 10.6148 15.7581 10.6398 15.7294 10.6578L0.306401 20.2968C0.276098 20.3158 0.241274 20.3262 0.205551 20.3272C0.169828 20.3281 0.13451 20.3194 0.103272 20.302C0.0720348 20.2847 0.0460167 20.2593 0.0279255 20.2285C0.00983429 20.1977 0.000329971 20.1625 0.000401497 20.1268L0.000401497 0.849815C0.000329971 0.81408 0.00983429 0.778978 0.0279255 0.748161C0.0460167 0.717344 0.0720348 0.691937 0.103272 0.674583C0.13451 0.657228 0.169828 0.64856 0.205551 0.64948C0.241274 0.650401 0.276098 0.660875 0.306401 0.679815L15.7294 10.3188Z" fill="white"/>
</svg>
