<svg width="0" height="0" fill="none" style="visibility: hidden; position: absolute;" aria-hidden="true">
    <symbol id="close_desktop" viewBox="0 0 50 50" fill="none" xmlns="http://www.w3.org/2000/svg">
        <path d="M15.0106 15.7871L10.9994 11.776L6.98831 15.7871C6.93765 15.8388 6.87705 15.8796 6.81025 15.9074C6.74346 15.9353 6.67181 15.9497 6.59944 15.9493C6.49045 15.9495 6.38395 15.9174 6.29329 15.857C6.20262 15.7965 6.13192 15.7106 6.09026 15.6099C6.0486 15.5092 6.03768 15.3977 6.05911 15.2908C6.08054 15.184 6.1333 15.0863 6.21057 15.0094L10.2217 10.9983L6.21057 6.98713C6.11039 6.8834 6.0549 6.74462 6.05615 6.60041C6.05741 6.4562 6.11531 6.31782 6.21729 6.21584C6.31926 6.11387 6.45711 6.05596 6.60132 6.05471C6.74553 6.05346 6.88458 6.10921 6.98831 6.2094L10.9994 10.2205L15.0106 6.2094C15.1143 6.10921 15.2534 6.05346 15.3976 6.05471C15.5418 6.05596 15.6796 6.11387 15.7816 6.21584C15.8836 6.31782 15.9415 6.4562 15.9427 6.60041C15.944 6.74462 15.8885 6.8834 15.7883 6.98713L11.7772 10.9983L15.7883 15.0094C15.8408 15.0601 15.8827 15.1206 15.9116 15.1877C15.9404 15.2548 15.9555 15.3274 15.9562 15.4004C15.9568 15.4734 15.943 15.5455 15.9153 15.6131C15.8877 15.6807 15.8467 15.7419 15.795 15.7936C15.7434 15.8452 15.6821 15.8862 15.6146 15.9139C15.547 15.9415 15.4743 15.9553 15.4013 15.9547C15.3283 15.9541 15.2563 15.9395 15.1892 15.9107C15.1221 15.8818 15.0613 15.8397 15.0106 15.7871Z" fill="white"/>
    </symbol>
    <symbol id="close_mobile" viewBox="0 0 22 22" fill="none" xmlns="http://www.w3.org/2000/svg">
        <path d="M15.0106 15.7871L10.9994 11.776L6.98831 15.7871C6.93765 15.8388 6.87705 15.8796 6.81025 15.9074C6.74346 15.9353 6.67181 15.9497 6.59944 15.9493C6.49045 15.9495 6.38395 15.9174 6.29329 15.857C6.20262 15.7965 6.13192 15.7106 6.09026 15.6099C6.0486 15.5092 6.03768 15.3977 6.05911 15.2908C6.08054 15.184 6.1333 15.0863 6.21057 15.0094L10.2217 10.9983L6.21057 6.98713C6.11039 6.8834 6.0549 6.74462 6.05615 6.60041C6.05741 6.4562 6.11531 6.31782 6.21729 6.21584C6.31926 6.11387 6.45711 6.05596 6.60132 6.05471C6.74553 6.05346 6.88458 6.10921 6.98831 6.2094L10.9994 10.2205L15.0106 6.2094C15.1143 6.10921 15.2534 6.05346 15.3976 6.05471C15.5418 6.05596 15.6796 6.11387 15.7816 6.21584C15.8836 6.31782 15.9415 6.4562 15.9427 6.60041C15.944 6.74462 15.8885 6.8834 15.7883 6.98713L11.7772 10.9983L15.7883 15.0094C15.8408 15.0601 15.8827 15.1206 15.9116 15.1877C15.9404 15.2548 15.9555 15.3274 15.9562 15.4004C15.9568 15.4734 15.943 15.5455 15.9153 15.6131C15.8877 15.6807 15.8467 15.7419 15.795 15.7936C15.7434 15.8452 15.6821 15.8862 15.6146 15.9139C15.547 15.9415 15.4743 15.9553 15.4013 15.9547C15.3283 15.9541 15.2563 15.9395 15.1892 15.9107C15.1221 15.8818 15.0613 15.8397 15.0106 15.7871Z" fill="white"/>
    </symbol>
    <symbol id="close_tablet" viewBox="0 0 28 28" fill="none" xmlns="http://www.w3.org/2000/svg">
        <path d="M15.0106 15.7871L10.9994 11.776L6.98831 15.7871C6.93765 15.8388 6.87705 15.8796 6.81025 15.9074C6.74346 15.9353 6.67181 15.9497 6.59944 15.9493C6.49045 15.9495 6.38395 15.9174 6.29329 15.857C6.20262 15.7965 6.13192 15.7106 6.09026 15.6099C6.0486 15.5092 6.03768 15.3977 6.05911 15.2908C6.08054 15.184 6.1333 15.0863 6.21057 15.0094L10.2217 10.9983L6.21057 6.98713C6.11039 6.8834 6.0549 6.74462 6.05615 6.60041C6.05741 6.4562 6.11531 6.31782 6.21729 6.21584C6.31926 6.11387 6.45711 6.05596 6.60132 6.05471C6.74553 6.05346 6.88458 6.10921 6.98831 6.2094L10.9994 10.2205L15.0106 6.2094C15.1143 6.10921 15.2534 6.05346 15.3976 6.05471C15.5418 6.05596 15.6796 6.11387 15.7816 6.21584C15.8836 6.31782 15.9415 6.4562 15.9427 6.60041C15.944 6.74462 15.8885 6.8834 15.7883 6.98713L11.7772 10.9983L15.7883 15.0094C15.8408 15.0601 15.8827 15.1206 15.9116 15.1877C15.9404 15.2548 15.9555 15.3274 15.9562 15.4004C15.9568 15.4734 15.943 15.5455 15.9153 15.6131C15.8877 15.6807 15.8467 15.7419 15.795 15.7936C15.7434 15.8452 15.6821 15.8862 15.6146 15.9139C15.547 15.9415 15.4743 15.9553 15.4013 15.9547C15.3283 15.9541 15.2563 15.9395 15.1892 15.9107C15.1221 15.8818 15.0613 15.8397 15.0106 15.7871Z" fill="white"/>
    </symbol>
    <symbol id="search_desktop" width="40" height="40" viewBox="0 0 40 40" fill="none" xmlns="http://www.w3.org/2000/svg">
        <g opacity="0.997">
            <path d="M26.6971 27.9629L33.5729 34.9486" stroke="white" stroke-width="1.5" stroke-miterlimit="10" stroke-linecap="round"/>
            <path d="M18.5714 30.3585C25.0805 30.3585 30.3571 25.0819 30.3571 18.5728C30.3571 12.0638 25.0805 6.78711 18.5714 6.78711C12.0623 6.78711 6.78571 12.0638 6.78571 18.5728C6.78571 25.0819 12.0623 30.3585 18.5714 30.3585Z" stroke="white" stroke-width="1.5"/>
        </g>
    </symbol>
    <symbol id="search_mobile" width="18" height="18" viewBox="0 0 18 18" fill="none" xmlns="http://www.w3.org/2000/svg">
        <g opacity="0.997">
            <path d="M12.0137 12.584L15.1078 15.7276" stroke="white" stroke-width="1.5" stroke-miterlimit="10" stroke-linecap="round"/>
            <path d="M8.35715 13.6618C11.2862 13.6618 13.6607 11.2873 13.6607 8.35826C13.6607 5.42918 11.2862 3.05469 8.35715 3.05469C5.42806 3.05469 3.05357 5.42918 3.05357 8.35826C3.05357 11.2873 5.42806 13.6618 8.35715 13.6618Z" stroke="white" stroke-width="1.5"/>
        </g>
    </symbol>
    <symbol id="search_tablet" width="24" height="24" viewBox="0 0 24 24" fill="none" xmlns="http://www.w3.org/2000/svg">
        <g opacity="0.997">
            <path d="M16.0183 16.7773L20.1437 20.9688" stroke="white" stroke-width="1.5" stroke-miterlimit="10" stroke-linecap="round"/>
            <path d="M11.1429 18.2132C15.0483 18.2132 18.2143 15.0472 18.2143 11.1417C18.2143 7.2363 15.0483 4.07031 11.1429 4.07031C7.23741 4.07031 4.07143 7.2363 4.07143 11.1417C4.07143 15.0472 7.23741 18.2132 11.1429 18.2132Z" stroke="white" stroke-width="1.5"/>
        </g>
    </symbol>
</svg>