<svg width="0" height="0" fill="none" style="visibility: hidden; position: absolute;" aria-hidden="true">
    <symbol id="close_desktop" width="50" height="50" viewBox="0 0 50 50" fill="none" xmlns="http://www.w3.org/2000/svg">
        <path d="M34.1149 35.8809L24.9987 26.7647L15.8825 35.8809C15.7674 35.9984 15.6296 36.091 15.4778 36.1543C15.326 36.2177 15.1632 36.2504 14.9987 36.2496C14.751 36.25 14.5089 36.1771 14.3029 36.0396C14.0968 35.9021 13.9362 35.707 13.8415 35.4781C13.7468 35.2492 13.722 34.9958 13.7707 34.753C13.8194 34.5101 13.9393 34.288 14.1149 34.1133L23.2311 24.9971L14.1149 15.8809C13.8872 15.6452 13.7611 15.3297 13.764 15.002C13.7668 14.6743 13.8984 14.3597 14.1302 14.128C14.3619 13.8962 14.6752 13.7646 15.003 13.7618C15.3307 13.7589 15.6467 13.8856 15.8825 14.1133L24.9987 23.2295L34.1149 14.1133C34.3507 13.8856 34.6667 13.7589 34.9944 13.7618C35.3222 13.7646 35.6355 13.8962 35.8672 14.128C36.099 14.3597 36.2306 14.6743 36.2334 15.002C36.2363 15.3297 36.1102 15.6452 35.8825 15.8809L26.7663 24.9971L35.8825 34.1133C36.0019 34.2286 36.0971 34.3661 36.1626 34.5186C36.2281 34.6711 36.2625 34.836 36.264 35.002C36.2654 35.168 36.234 35.3318 36.1712 35.4854C36.1083 35.639 36.0151 35.7782 35.8977 35.8956C35.7804 36.0129 35.6412 36.1061 35.4876 36.169C35.334 36.2318 35.1689 36.2632 35.003 36.2618C34.837 36.2603 34.6733 36.2272 34.5208 36.1617C34.3683 36.0962 34.2302 36.0003 34.1149 35.8809Z" fill="white"/>
    </symbol>
    <symbol id="close_mobile" viewBox="0 0 22 22" fill="none" xmlns="http://www.w3.org/2000/svg">
        <path d="M15.0106 15.7871L10.9994 11.776L6.98831 15.7871C6.93765 15.8388 6.87705 15.8796 6.81025 15.9074C6.74346 15.9353 6.67181 15.9497 6.59944 15.9493C6.49045 15.9495 6.38395 15.9174 6.29329 15.857C6.20262 15.7965 6.13192 15.7106 6.09026 15.6099C6.0486 15.5092 6.03768 15.3977 6.05911 15.2908C6.08054 15.184 6.1333 15.0863 6.21057 15.0094L10.2217 10.9983L6.21057 6.98713C6.11039 6.8834 6.0549 6.74462 6.05615 6.60041C6.05741 6.4562 6.11531 6.31782 6.21729 6.21584C6.31926 6.11387 6.45711 6.05596 6.60132 6.05471C6.74553 6.05346 6.88458 6.10921 6.98831 6.2094L10.9994 10.2205L15.0106 6.2094C15.1143 6.10921 15.2534 6.05346 15.3976 6.05471C15.5418 6.05596 15.6796 6.11387 15.7816 6.21584C15.8836 6.31782 15.9415 6.4562 15.9427 6.60041C15.944 6.74462 15.8885 6.8834 15.7883 6.98713L11.7772 10.9983L15.7883 15.0094C15.8408 15.0601 15.8827 15.1206 15.9116 15.1877C15.9404 15.2548 15.9555 15.3274 15.9562 15.4004C15.9568 15.4734 15.943 15.5455 15.9153 15.6131C15.8877 15.6807 15.8467 15.7419 15.795 15.7936C15.7434 15.8452 15.6821 15.8862 15.6146 15.9139C15.547 15.9415 15.4743 15.9553 15.4013 15.9547C15.3283 15.9541 15.2563 15.9395 15.1892 15.9107C15.1221 15.8818 15.0613 15.8397 15.0106 15.7871Z" fill="white"/>
    </symbol>
    <symbol id="close_tablet" width="28" height="28" viewBox="0 0 28 28" fill="none" xmlns="http://www.w3.org/2000/svg">
        <path d="M19.1043 20.0938L13.9993 14.9887L8.89418 20.0938C8.82971 20.1596 8.75258 20.2114 8.66757 20.2469C8.58256 20.2824 8.49137 20.3007 8.39926 20.3002C8.26055 20.3005 8.125 20.2596 8.00961 20.1826C7.89422 20.1057 7.80424 19.9964 7.75121 19.8682C7.69819 19.74 7.68429 19.5981 7.71156 19.4621C7.73884 19.3261 7.80599 19.2018 7.90434 19.1039L13.0094 13.9989L7.90434 8.89378C7.77683 8.76175 7.70621 8.58513 7.7078 8.40159C7.7094 8.21805 7.7831 8.04192 7.91288 7.91214C8.04267 7.78235 8.21811 7.70865 8.40165 7.70706C8.58519 7.70546 8.76216 7.77642 8.89418 7.90393L13.9993 13.009L19.1043 7.90393C19.2364 7.77642 19.4133 7.70546 19.5969 7.70706C19.7804 7.70865 19.9559 7.78235 20.0856 7.91214C20.2154 8.04192 20.2891 8.21805 20.2907 8.40159C20.2923 8.58513 20.2217 8.76175 20.0942 8.89378L14.9891 13.9989L20.0942 19.1039C20.161 19.1685 20.2144 19.2455 20.2511 19.3309C20.2878 19.4163 20.307 19.5086 20.3078 19.6016C20.3086 19.6945 20.291 19.7863 20.2559 19.8723C20.2207 19.9583 20.1685 20.0363 20.1027 20.102C20.037 20.1677 19.9591 20.2199 19.873 20.2551C19.787 20.2903 19.6946 20.3079 19.6017 20.3071C19.5087 20.3063 19.417 20.2877 19.3316 20.251C19.2462 20.2143 19.1689 20.1606 19.1043 20.0938Z" fill="white"/>
    </symbol>
    <symbol id="del_desktop" width="36" height="36" viewBox="0 0 36 36" fill="none" xmlns="http://www.w3.org/2000/svg">
        <g clip-path="url(#clip0_15_424__del_desktop)">
            <path d="M18 30C24.6274 30 30 24.6274 30 18C30 11.3726 24.6274 6 18 6C11.3726 6 6 11.3726 6 18C6 24.6274 11.3726 30 18 30Z" fill="#A6A6A6"/>
            <path d="M24.0604 22.5464L19.5154 18.0014L24.0604 13.4564L22.5454 11.9414L18.0004 16.4864L13.4554 11.9414L11.9404 13.4564L16.4854 18.0014L11.9404 22.5464L13.4554 24.0614L18.0004 19.5164L22.5469 24.0614L24.0604 22.5464Z" fill="black"/>
        </g>
        <defs>
            <clipPath id="clip0_15_424__del_desktop">
                <rect width="36" height="36" fill="white"/>
            </clipPath>
        </defs>
    </symbol>
    <symbol id="del_mobile" width="20" height="20" viewBox="0 0 20 20" fill="none" xmlns="http://www.w3.org/2000/svg">
        <g clip-path="url(#clip0_98_3848__del_mobile)">
            <path d="M9.99967 16.6673C13.6816 16.6673 16.6663 13.6825 16.6663 10.0007C16.6663 6.31875 13.6816 3.33398 9.99967 3.33398C6.31778 3.33398 3.33301 6.31875 3.33301 10.0007C3.33301 13.6825 6.31778 16.6673 9.99967 16.6673Z" fill="#A6A6A6"/>
            <path d="M13.3671 12.5264L10.8421 10.0014L13.3671 7.47643L12.5255 6.63477L10.0005 9.15977L7.47546 6.63477L6.63379 7.47643L9.15879 10.0014L6.63379 12.5264L7.47546 13.3681L10.0005 10.8431L12.5263 13.3681L13.3671 12.5264Z" fill="black"/>
        </g>
        <defs>
            <clipPath id="clip0_98_3848__del_mobile">
                <rect width="20" height="20" fill="white"/>
            </clipPath>
        </defs>
    </symbol>
    <symbol id="edit_desktop" width="60" height="60" viewBox="0 0 60 60" fill="none" xmlns="http://www.w3.org/2000/svg">
        <g clip-path="url(#clip0_22_1529__edit_desktop)">
            <path d="M10.27 41.8854L9.23438 51.0162H18.3364L45.1804 24.1722L36.0784 15.0702L10.27 41.8854ZM49.3792 19.9722C49.977 19.3746 50.4513 18.6652 50.7748 17.8843C51.0984 17.1034 51.265 16.2664 51.265 15.4212C51.265 14.5759 51.0984 13.7389 50.7748 12.958C50.4513 12.1772 49.977 11.4677 49.3792 10.8702C48.7816 10.2723 48.0722 9.79806 47.2913 9.47449C46.5104 9.15092 45.6734 8.98437 44.8282 8.98438C43.9829 8.98437 43.1459 9.15092 42.3651 9.47449C41.5842 9.79806 40.8747 10.2723 40.2772 10.8702L38.6752 12.4722L47.7772 21.5742L49.3792 19.9722Z" fill="white"/>
        </g>
        <defs>
            <clipPath id="clip0_22_1529__edit_desktop">
                <rect width="60" height="60" fill="white"/>
            </clipPath>
        </defs>
    </symbol>
    <symbol id="edit_mobile" width="50" height="50" viewBox="0 0 50 50" fill="none" xmlns="http://www.w3.org/2000/svg">
        <g clip-path="url(#clip0_103_5814__edit_mobile)">
            <path d="M8.55831 34.9058L7.69531 42.5148H15.2803L37.6503 20.1448L30.0653 12.5598L8.55831 34.9058ZM41.1493 16.6448C41.6475 16.1468 42.0427 15.5556 42.3124 14.9049C42.582 14.2541 42.7208 13.5567 42.7208 12.8523C42.7208 12.1479 42.582 11.4504 42.3124 10.7997C42.0427 10.1489 41.6475 9.55771 41.1493 9.05977C40.6514 8.56156 40.0601 8.16635 39.4094 7.89671C38.7587 7.62707 38.0612 7.48828 37.3568 7.48828C36.6524 7.48828 35.9549 7.62707 35.3042 7.89671C34.6535 8.16635 34.0623 8.56156 33.5643 9.05977L32.2293 10.3948L39.8143 17.9798L41.1493 16.6448Z" fill="white"/>
        </g>
        <defs>
            <clipPath id="clip0_103_5814__edit_mobile">
                <rect width="50" height="50" fill="white"/>
            </clipPath>
        </defs>
    </symbol>
    <symbol id="hide_desktop" width="36" height="36" viewBox="0 0 36 36" fill="none" xmlns="http://www.w3.org/2000/svg">
        <g clip-path="url(#clip0_15_429__hide_desktop)">
            <path d="M29.0122 11.9375L24.4987 16.451C24.7762 17.5627 24.7615 18.7273 24.4556 19.8316C24.1498 20.9358 23.5633 21.9421 22.7533 22.7525C21.9433 23.563 20.9372 24.15 19.8331 24.4565C18.7291 24.763 17.5646 24.7785 16.4527 24.5015L13.3867 27.5675C14.8847 28.0109 16.4384 28.2367 18.0006 28.238C21.319 28.1555 24.5499 27.1556 27.3348 25.3491C30.1196 23.5426 32.3497 21.0001 33.7777 18.0035C32.5958 15.6928 30.9775 13.6329 29.0122 11.9375Z" fill="#A6A6A6"/>
            <path d="M29.938 4.53516L25.0826 9.38916C22.8738 8.32328 20.4536 7.76758 18.001 7.76316C14.6822 7.84565 11.4512 8.84574 8.66605 10.6525C5.88094 12.4593 3.65075 15.0022 2.22266 17.9992C3.77315 21.0492 6.09573 23.6397 8.95911 25.5127L3.00864 31.4632H6.06412L32.9921 4.53516H29.938ZM18.001 14.6242C17.4267 14.6205 16.8611 14.7645 16.3583 15.0422C15.8555 15.3199 15.4325 15.722 15.1298 16.2101C14.827 16.6982 14.6547 17.2559 14.6292 17.8297C14.6038 18.4035 14.7262 18.9742 14.9846 19.4872L12.5846 21.8872C11.7541 20.7614 11.3052 19.3996 11.3036 18.0007C11.3036 16.2248 12.0091 14.5216 13.2648 13.2659C14.5206 12.0101 16.2237 11.3047 17.9996 11.3047C19.398 11.3065 20.7592 11.7554 21.8845 12.5857L19.4846 14.9857C19.0247 14.7519 18.5169 14.6281 18.001 14.6242Z" fill="#A6A6A6"/>
        </g>
        <defs>
            <clipPath id="clip0_15_429__hide_desktop">
                <rect width="36" height="36" fill="white"/>
            </clipPath>
        </defs>
    </symbol>
    <symbol id="hide_mobile" width="20" height="20" viewBox="0 0 20 20" fill="none" xmlns="http://www.w3.org/2000/svg">
        <g clip-path="url(#clip0_97_5093__hide_mobile)">
            <path d="M16.1183 6.63281L13.6108 9.14031C13.765 9.75792 13.7568 10.4049 13.5869 11.0184C13.417 11.6319 13.0912 12.1909 12.6412 12.6412C12.1912 13.0914 11.6322 13.4175 11.0188 13.5878C10.4055 13.7581 9.75853 13.7667 9.14084 13.6128L7.4375 15.3161C8.26969 15.5625 9.1329 15.6879 10.0008 15.6886C11.8443 15.6428 13.6393 15.0873 15.1864 14.0837C16.7336 13.0801 17.9725 11.6676 18.7658 10.0028C18.1092 8.71908 17.2101 7.57468 16.1183 6.63281Z" fill="#A6A6A6"/>
            <path d="M16.6328 2.51953L13.9353 5.2162C12.7082 4.62404 11.3636 4.31532 10.0011 4.31286C8.15734 4.35869 6.3623 4.9143 4.81501 5.91807C3.26773 6.92184 2.02874 8.33455 1.23535 9.99953C2.09674 11.694 3.38706 13.1332 4.97782 14.1737L1.67201 17.4795H3.3695L18.3295 2.51953H16.6328ZM10.0011 8.12453C9.68203 8.12252 9.36781 8.20248 9.08849 8.35676C8.80917 8.51104 8.57417 8.73446 8.40596 9.00563C8.23776 9.27679 8.14202 9.5866 8.1279 9.90538C8.11378 10.2242 8.18178 10.5412 8.32535 10.8262L6.99198 12.1595C6.53059 11.5341 6.28122 10.7776 6.28031 10.0004C6.28031 9.01376 6.67226 8.06756 7.36989 7.36993C8.06753 6.67229 9.0137 6.28036 10.0003 6.28036C10.7772 6.28139 11.5334 6.53075 12.1586 6.99203L10.8253 8.32536C10.5698 8.19549 10.2877 8.12674 10.0011 8.12453Z" fill="#A6A6A6"/>
        </g>
        <defs>
            <clipPath id="clip0_97_5093__hide_mobile">
                <rect width="20" height="20" fill="white"/>
            </clipPath>
        </defs>
    </symbol>
    <symbol id="live_desktop" width="34" height="34" viewBox="0 0 34 34" fill="none" xmlns="http://www.w3.org/2000/svg">
        <path d="M11.0004 23.3695H6.51666V16.1445H7.63865V22.3963H11.0019L11.0004 23.3695Z" fill="white" stroke="white" stroke-width="0.2" stroke-linejoin="round"/>
        <path d="M12.4837 23.3695V16.1445H13.6057V23.3695H12.4837Z" fill="white" stroke="white" stroke-width="0.2" stroke-linejoin="round"/>
        <path d="M17.663 23.3695L15.0861 16.1445H16.303L18.2693 22.1059H18.3005L20.2725 16.1445H21.4696L18.8913 23.3695H17.663Z" fill="white" stroke="white" stroke-width="0.2" stroke-linejoin="round"/>
        <path d="M27.5357 23.3695H22.9514V16.1445H27.5357V17.1107H24.0734V19.2229H27.3515V20.1494H24.0734V22.392H27.5357V23.3695Z" fill="white" stroke="white" stroke-width="0.2" stroke-linejoin="round"/>
        <g opacity="0.901">
            <g opacity="0.998">
                <path d="M29.75 9.34766H4.24998C2.37221 9.34766 0.849976 10.8699 0.849976 12.7477V26.9143C0.849976 28.7921 2.37221 30.3143 4.24998 30.3143H29.75C31.6277 30.3143 33.15 28.7921 33.15 26.9143V12.7477C33.15 10.8699 31.6277 9.34766 29.75 9.34766Z" stroke="white" stroke-width="1.2" stroke-linecap="round" stroke-linejoin="round"/>
            </g>
            <g opacity="0.998">
                <path d="M15.9446 9.20898L11.6166 4.95898" stroke="white" stroke-width="1.2" stroke-linecap="round" stroke-linejoin="round"/>
                <path d="M17.9846 9.20898L22.3125 4.95898" stroke="white" stroke-width="1.2" stroke-linecap="round" stroke-linejoin="round"/>
            </g>
        </g>
    </symbol>
    <symbol id="live_tablet" width="20" height="20" viewBox="0 0 20 20" fill="none" xmlns="http://www.w3.org/2000/svg">
        <path d="M6.47079 13.7461H3.83331V9.49609H4.49331V13.1736H6.47166L6.47079 13.7461Z" fill="white" stroke="white" stroke-width="0.2" stroke-linejoin="round"/>
        <path d="M7.34332 13.7461V9.49609H8.00332V13.7461H7.34332Z" fill="white" stroke="white" stroke-width="0.2" stroke-linejoin="round"/>
        <path d="M10.39 13.7461L8.87415 9.49609H9.58999L10.7467 13.0028H10.765L11.925 9.49609H12.6292L11.1125 13.7461H10.39Z" fill="white" stroke="white" stroke-width="0.2" stroke-linejoin="round"/>
        <path d="M16.1974 13.7461H13.5008V9.49609H16.1974V10.0644H14.1608V11.3069H16.0891V11.8519H14.1608V13.1711H16.1974V13.7461Z" fill="white" stroke="white" stroke-width="0.2" stroke-linejoin="round"/>
        <g opacity="0.901">
            <g opacity="0.998">
                <path d="M17.5 5.49805H2.5C1.39543 5.49805 0.5 6.39348 0.5 7.49805V15.8314C0.5 16.936 1.39543 17.8314 2.5 17.8314H17.5C18.6046 17.8314 19.5 16.936 19.5 15.8314V7.49805C19.5 6.39348 18.6046 5.49805 17.5 5.49805Z" stroke="white" stroke-width="1.2" stroke-linecap="round" stroke-linejoin="round"/>
            </g>
            <g opacity="0.998">
                <path d="M9.37915 5.41602L6.83331 2.91602" stroke="white" stroke-width="1.2" stroke-linecap="round" stroke-linejoin="round"/>
                <path d="M10.5792 5.41602L13.125 2.91602" stroke="white" stroke-width="1.2" stroke-linecap="round" stroke-linejoin="round"/>
            </g>
        </g>
    </symbol>
    <symbol id="lock_desktop" width="60" height="60" viewBox="0 0 60 60" fill="none" xmlns="http://www.w3.org/2000/svg">
        <g clip-path="url(#clip0_22_1525__lock_desktop)">
            <path d="M45.9953 47.8644H13.3301V23.3652H45.9953V47.8632V47.8644ZM29.7125 31.7316C29.076 31.7316 28.4655 31.9845 28.0154 32.4346C27.5653 32.8847 27.3125 33.4951 27.3125 34.1316V37.8852C27.3125 38.5218 27.5653 39.1322 28.0154 39.5823C28.4655 40.0324 29.076 40.2852 29.7125 40.2852H29.7977C30.4342 40.2852 31.0446 40.0324 31.4947 39.5823C31.9448 39.1322 32.1977 38.5218 32.1977 37.8852V34.1328C32.1977 33.4963 31.9448 32.8859 31.4947 32.4358C31.0446 31.9857 30.4342 31.7328 29.7977 31.7328L29.7125 31.7316Z" fill="white"/>
            <path d="M29.7548 10.9688C32.346 10.9688 34.8312 11.9981 36.6635 13.8304C38.4958 15.6627 39.5252 18.1479 39.5252 20.7391V26.8459C39.5252 32.2459 20.2304 27.7639 19.9844 26.8459V20.7391C19.9844 18.1479 21.0138 15.6627 22.8461 13.8304C24.6784 11.9981 27.1635 10.9688 29.7548 10.9688V10.9688Z" stroke="white" stroke-width="4"/>
        </g>
        <defs>
            <clipPath id="clip0_22_1525__lock_desktop">
                <rect width="60" height="60" fill="white"/>
            </clipPath>
        </defs>
    </symbol>
    <symbol id="lock_mobile" width="50" height="50" viewBox="0 0 50 50" fill="none" xmlns="http://www.w3.org/2000/svg">
        <g clip-path="url(#clip0_103_5813__lock_mobile)">
            <path d="M38.3284 39.8867H11.1074V19.4707H38.3284V39.8857V39.8867ZM24.7594 26.4427C24.229 26.4427 23.7203 26.6534 23.3452 27.0285C22.9701 27.4036 22.7594 27.9123 22.7594 28.4427V31.5707C22.7594 32.1011 22.9701 32.6098 23.3452 32.9849C23.7203 33.36 24.229 33.5707 24.7594 33.5707H24.8304C25.3609 33.5707 25.8696 33.36 26.2446 32.9849C26.6197 32.6098 26.8304 32.1011 26.8304 31.5707V28.4437C26.8304 27.9133 26.6197 27.4046 26.2446 27.0295C25.8696 26.6544 25.3609 26.4437 24.8304 26.4437L24.7594 26.4427Z" fill="white"/>
            <path d="M24.7943 9.14062C26.9537 9.14063 29.0247 9.99844 30.5516 11.5254C32.0785 13.0523 32.9363 15.1232 32.9363 17.2826V22.3716C32.9363 26.8716 16.8573 23.1366 16.6523 22.3716V17.2826C16.6523 15.1232 17.5102 13.0523 19.0371 11.5254C20.564 9.99844 22.635 9.14063 24.7943 9.14062V9.14062Z" stroke="white" stroke-width="4"/>
        </g>
        <defs>
            <clipPath id="clip0_103_5813__lock_mobile">
                <rect width="50" height="50" fill="white"/>
            </clipPath>
        </defs>
    </symbol>
    <symbol id="paramount_desktop" width="112" height="34" viewBox="0 0 112 34" fill="none" xmlns="http://www.w3.org/2000/svg">
        <g clip-path="url(#clip0_2_59__paramount_desktop)">
            <path fill-rule="evenodd" clip-rule="evenodd" d="M29.6664 11.4516C29.6664 7.0599 25.0211 4.95898 19.5004 4.95898C13.6 4.95898 8.19539 7.5614 6.20922 11.6258C5.65104 12.7113 5.35966 13.9143 5.35922 15.1349C5.34302 16.182 5.63892 17.2103 6.20922 18.0886C6.74208 18.793 7.44519 19.3503 8.25253 19.7084C9.05987 20.0665 9.94497 20.2135 10.8247 20.1357C13.5419 20.1357 15.7321 18.644 15.7321 16.0132C15.7339 15.9092 15.7134 15.8059 15.6717 15.7105C15.6301 15.6151 15.5684 15.5298 15.4908 15.4605C15.4132 15.3911 15.3216 15.3392 15.2222 15.3085C15.1227 15.2777 15.0178 15.2688 14.9146 15.2822C14.2134 15.2822 14.0391 15.7795 14.0646 16.0132C14.1275 16.4805 14.0887 16.9558 13.9511 17.4067C13.8134 17.8576 13.5801 18.2735 13.267 18.626C12.9539 18.9785 12.5685 19.2592 12.137 19.4491C11.7054 19.639 11.238 19.7336 10.7666 19.7263C8.34272 19.7263 7.31989 17.6495 7.31989 15.4282C7.31989 10.8948 10.7383 7.91273 14.2729 6.59665C15.9348 5.97504 17.6978 5.6676 19.4721 5.68998C23.5039 5.68998 26.775 7.23982 26.775 11.3567C26.7237 13.0592 26.044 14.6824 24.8669 15.9135C23.6897 17.1445 22.0985 17.8961 20.4 18.0235L20.5416 17.556C21.1381 14.9534 22.1544 12.4653 23.5506 10.1893C23.6589 10.0011 23.7861 9.82455 23.9303 9.66232L23.7263 9.42857C23.4159 9.60641 23.1224 9.8122 22.8494 10.0434C16.1911 15.2199 15.9842 29.8413 7.13289 29.8413C6.82996 29.8521 6.5267 29.8327 6.22764 29.7832C5.42114 29.7155 4.67315 29.3349 4.14366 28.7228C3.61417 28.1107 3.34521 27.3157 3.3943 26.5079C3.3943 26.1863 3.51189 25.7188 3.51189 25.4553C3.51779 25.3358 3.49959 25.2163 3.45837 25.1039C3.41714 24.9915 3.35374 24.8886 3.27192 24.8012C3.19011 24.7139 3.09156 24.6438 2.98213 24.5953C2.87271 24.5468 2.75465 24.5208 2.63497 24.5189H2.55705C1.76797 24.5189 1.44639 25.1621 1.42372 26.039C1.36564 28.6414 3.26539 30.1332 6.21489 30.4306C6.53647 30.4306 6.85805 30.4604 7.20655 30.4604C14.1298 30.4604 18.3656 25.2258 20.1776 18.8806C21.0892 18.759 21.9894 18.5633 22.8692 18.2955C26.0822 17.4186 29.6692 15.2539 29.6692 11.453" fill="white"/>
            <path fill-rule="evenodd" clip-rule="evenodd" d="M68.4675 17.9622C68.08 20.262 67.1926 22.4488 65.8679 24.3683C65.3423 25.1574 64.8762 25.36 64.4668 25.36C63.8831 25.36 63.7372 24.8925 63.8236 24.2267C64.2302 22.0977 65.0755 20.0767 66.3056 18.2922C66.9488 17.4153 67.3568 17.064 67.854 17.064C68.3216 17.064 68.4675 17.4734 68.4675 17.9707M41.5409 24.6942C41.191 24.6942 40.9275 24.5766 40.9275 24.1091C41.2314 22.2675 42.0059 20.5357 43.1757 19.0813C43.5222 18.52 43.9913 18.0444 44.5477 17.6902C45.1041 17.3359 45.7335 17.1122 46.3887 17.0357L44.8417 20.4852C43.673 23.1457 42.4759 24.6942 41.5409 24.6942ZM26.3542 24.6942C26.0043 24.6942 25.7706 24.5766 25.7706 24.1091C26.1007 22.2755 26.8723 20.5499 28.0188 19.0813C28.3653 18.52 28.8344 18.0444 29.3908 17.6902C29.9472 17.3359 30.5766 17.1122 31.2318 17.0357L29.7131 20.4852C28.5444 23.0862 27.2892 24.6942 26.3542 24.6942ZM95.5385 12.9727H93.0849L92.5593 14.259L91.596 16.4222H90.4626L90.1127 17.1532H91.3098L89.879 20.2812C88.8561 22.5026 87.2794 24.6729 86.3741 24.6729C86.1701 24.6729 86.0525 24.5851 86.0525 24.3811C86.0857 24.0565 86.1749 23.7402 86.3161 23.4461C86.6079 22.7732 87.0754 21.8084 87.4253 21.0788C88.0391 20.0144 88.4827 18.8605 88.74 17.659C88.7503 17.4633 88.7185 17.2676 88.6465 17.0853C88.5746 16.903 88.4642 16.7383 88.323 16.6024C88.1817 16.4666 88.0129 16.3627 87.8279 16.2979C87.643 16.233 87.4462 16.2088 87.2511 16.2267C86.6525 16.2775 86.0709 16.4517 85.543 16.7384C85.0151 17.0252 84.5524 17.4182 84.184 17.8927L84.7974 16.4307H82.4854L80.6168 20.6694C79.8858 22.1725 78.3671 24.6517 77.4038 24.6517C77.1998 24.6517 77.112 24.5341 77.112 24.3301C77.1318 24.1486 77.1796 23.9713 77.2536 23.8045C77.3415 23.6288 78.4507 20.9981 78.4507 20.9981L80.4652 16.35H78.0116L76.0282 20.8833C75.4446 22.2858 73.9032 24.6545 72.903 24.6545C72.8605 24.6609 72.817 24.6582 72.7756 24.6467C72.7341 24.6351 72.6956 24.6148 72.6625 24.5872C72.6294 24.5597 72.6026 24.5254 72.5837 24.4867C72.5649 24.448 72.5545 24.4057 72.5531 24.3627V24.3046C72.6012 23.9478 72.7099 23.6018 72.8747 23.2817L73.8975 21.0023L76.0225 16.3542H73.5689L73.1014 17.4068C72.9492 17.82 72.6861 18.1832 72.341 18.4567C71.9958 18.7301 71.582 18.9031 71.145 18.9567C70.6775 18.9567 70.4437 18.781 70.3573 18.6053C70.3557 18.2736 70.2858 17.9457 70.152 17.6421C70.0181 17.3386 69.8232 17.0659 69.5793 16.841C69.3354 16.6161 69.0478 16.4438 68.7344 16.335C68.421 16.2261 68.0885 16.183 67.7577 16.2083C66.8554 16.2329 65.9748 16.4909 65.202 16.9572C64.4291 17.4235 63.7902 18.0821 63.3476 18.8688C62.7028 19.8618 62.2105 20.9458 61.887 22.0847C61.0115 23.5169 60.1049 24.6347 59.3753 24.6347C59.3316 24.6411 59.287 24.6372 59.245 24.6233C59.2031 24.6094 59.1649 24.5859 59.1337 24.5547C59.1024 24.5234 59.0789 24.4853 59.065 24.4434C59.0512 24.4014 59.0473 24.3568 59.0537 24.3131C59.1123 23.9687 59.2207 23.6347 59.3753 23.3214L60.9818 19.9016C61.3814 19.146 61.6387 18.3234 61.7411 17.4748C61.7446 17.3014 61.7115 17.1292 61.644 16.9694C61.5766 16.8096 61.4763 16.6658 61.3496 16.5473C61.2229 16.4288 61.0728 16.3383 60.9089 16.2816C60.7449 16.2249 60.5709 16.2033 60.3981 16.2182C59.7397 16.2651 59.0976 16.4446 58.5104 16.746C57.9232 17.0474 57.403 17.4644 56.9811 17.9721C57.0291 17.8012 57.0488 17.6237 57.0392 17.4465C57.0623 17.2774 57.0455 17.1052 56.9902 16.9438C56.9349 16.7823 56.8425 16.6361 56.7205 16.5167C56.5986 16.3973 56.4503 16.3082 56.2877 16.2563C56.1251 16.2045 55.9526 16.1915 55.784 16.2182C55.1682 16.2708 54.5707 16.4545 54.0317 16.757C53.4927 17.0595 53.0246 17.4738 52.6589 17.9721L53.3006 16.3939H51.0807L49.1824 20.6609C48.2771 22.6442 46.8463 24.6361 46.0289 24.6361C45.8532 24.6361 45.7371 24.5482 45.7371 24.3145C45.861 23.7183 46.057 23.1393 46.3207 22.5904L48.8325 16.9237C49.0081 16.4846 47.8096 16.2154 46.291 16.2154C44.6791 16.2952 43.1432 16.9247 41.939 17.999C41.4556 18.4889 40.8509 18.8418 40.1866 19.0218C40.0449 19.0218 39.9825 18.934 39.9825 18.8462C39.9825 18.4948 40.8 17.5315 40.8 16.7707C40.8 16.4194 40.6243 16.2154 40.1568 16.2154C39.0643 16.4214 38.0923 17.0384 37.441 17.9395L38.0842 16.3897H35.894L34.0354 20.6524C33.1301 22.6357 31.6412 24.7452 30.8521 24.7452C30.6481 24.7452 30.5306 24.6276 30.5306 24.3938C30.6581 23.7625 30.8747 23.1524 31.1737 22.5819L33.6557 16.9152C33.8314 16.4761 32.6329 16.2069 31.1156 16.2069C30.0142 16.2766 28.9422 16.5909 27.9774 17.1268C27.0126 17.6627 26.1794 18.4069 25.5382 19.3052C24.3332 20.6974 23.5706 22.4173 23.3481 24.2451C23.3153 24.4946 23.3387 24.7483 23.4168 24.9876C23.4949 25.2268 23.6255 25.4456 23.7991 25.6278C23.9728 25.81 24.185 25.951 24.4202 26.0404C24.6555 26.1299 24.9077 26.1656 25.1586 26.1448C25.7824 26.0752 26.3833 25.8688 26.9183 25.5405C27.4533 25.2121 27.9094 24.7698 28.254 24.2451C28.2106 24.408 28.1812 24.5744 28.1661 24.7423C28.1661 25.5612 28.4877 26.1448 29.4808 26.1448C30.0779 26.0513 30.649 25.8343 31.1576 25.5077C31.6662 25.1811 32.1011 24.752 32.4346 24.2479L31.705 25.972H34.0708L36.4012 20.685C37.1605 18.9609 38.036 18.084 38.2698 18.084C38.3576 18.084 38.4115 18.1137 38.4115 18.1718C38.4115 18.3475 38.0318 18.8447 38.0318 19.2825C38.0318 19.7202 38.2655 20.0716 38.937 20.0716C39.5024 20.0287 40.0464 19.8371 40.5138 19.5162C39.3831 20.8575 38.6813 22.5074 38.4993 24.2522C38.4615 24.5026 38.4814 24.7584 38.5577 24.9999C38.6339 25.2414 38.7643 25.4623 38.9391 25.6456C39.1138 25.829 39.3282 25.9699 39.5657 26.0577C39.8033 26.1454 40.0578 26.1777 40.3098 26.1519C40.9433 26.044 41.5479 25.8067 42.0856 25.4547C42.6233 25.1028 43.0826 24.6437 43.435 24.1062C43.4012 24.2996 43.3817 24.4951 43.3769 24.6913C43.3598 24.88 43.3829 25.0702 43.4446 25.2493C43.5063 25.4284 43.6053 25.5924 43.735 25.7306C43.8647 25.8687 44.0221 25.9778 44.197 26.0506C44.3719 26.1235 44.5602 26.1585 44.7496 26.1533C45.7725 26.1533 46.5601 25.5102 47.583 24.2833L46.8236 25.9833H49.2773L51.4972 20.9258C52.4605 18.7342 53.805 17.5641 54.4467 17.5641C54.5884 17.5343 54.7386 17.6817 54.7683 17.8276V17.8857C54.7315 18.137 54.6629 18.3826 54.5643 18.6167L51.3513 26.0117H53.8631L56.1113 20.8677C57.103 18.6464 58.1853 17.5641 58.973 17.5641C59.235 17.5641 59.3229 17.6817 59.3229 17.9437C59.3036 18.2266 59.2345 18.5038 59.1189 18.7626L56.9287 23.4376C56.7179 23.8781 56.5893 24.3534 56.549 24.8401C56.549 25.5711 56.9287 26.1845 58.038 26.1845C59.439 26.1845 60.52 25.1036 61.7468 23.524V23.8456C61.746 24.1862 61.8175 24.5231 61.9566 24.8341C62.0956 25.1451 62.2991 25.423 62.5535 25.6495C62.8079 25.876 63.1074 26.046 63.4323 26.1483C63.7573 26.2505 64.1002 26.2826 64.4385 26.2426C66.6867 26.2426 68.4689 24.7225 69.5781 22.2674C69.9822 21.3978 70.2484 20.4706 70.3672 19.5191C70.6115 19.6386 70.8843 19.6876 71.1549 19.6607C71.5235 19.678 71.8891 19.5864 72.2061 19.3972L71.8264 20.2472C71.3886 21.1822 70.8914 22.2051 70.5117 23.0806C70.2641 23.5941 70.1156 24.1497 70.074 24.7182C70.0541 24.9201 70.0787 25.1238 70.1461 25.3152C70.2134 25.5065 70.3219 25.6807 70.4638 25.8256C70.6057 25.9705 70.7777 26.0826 70.9676 26.1539C71.1575 26.2252 71.3607 26.254 71.5629 26.2383C72.2422 26.1105 72.8881 25.8448 73.4607 25.4577C74.0333 25.0705 74.5204 24.57 74.8921 23.9872C74.8324 24.2561 74.8029 24.5307 74.8042 24.8061C74.8042 25.5371 75.038 26.2383 76.0311 26.2383C76.6386 26.1563 77.2205 25.9407 77.7349 25.6071C78.2493 25.2735 78.6834 24.8301 79.006 24.3088L78.2765 26.0088H80.7301L82.6866 21.5364C83.7958 19.0218 84.9065 17.5017 85.9576 17.5017C86.0413 17.5 86.1229 17.5286 86.1872 17.5822C86.2515 17.6358 86.2942 17.7109 86.3076 17.7936V17.8814C86.0265 18.8305 85.6342 19.743 85.1388 20.6C84.7386 21.4274 84.3606 22.2654 84.0055 23.1132C83.7448 23.6318 83.5957 24.1993 83.5677 24.7792C83.55 24.9639 83.5733 25.1503 83.636 25.325C83.6987 25.4997 83.7992 25.6583 83.9304 25.7896C84.0615 25.9209 84.2201 26.0216 84.3947 26.0845C84.5693 26.1474 84.7557 26.1709 84.9405 26.1533C85.6814 26.0282 86.3873 25.7471 87.0115 25.3288C87.6358 24.9104 88.1641 24.3643 88.5615 23.7266C88.3895 24.2253 88.3009 24.7489 88.2994 25.2764C88.2662 25.5569 88.2955 25.8413 88.3851 26.1091C88.4748 26.3769 88.6227 26.6216 88.8181 26.8255C89.0135 27.0295 89.2516 27.1876 89.5154 27.2887C89.7791 27.3897 90.062 27.4311 90.3436 27.4099C91.1412 27.4005 91.9165 27.1453 92.5636 26.6789C93.4652 25.9731 94.2448 25.1241 94.8713 24.1657L94.4335 23.7563C93.9087 24.5483 93.2689 25.2578 92.5352 25.8615C92.1847 26.1637 91.7425 26.3389 91.28 26.3587C90.7545 26.3587 90.4301 26.0952 90.4301 25.4521C90.5382 24.5079 90.805 23.5888 91.2191 22.7335C91.2191 22.7335 91.8906 21.2134 92.5338 19.7812C93.0594 18.5529 93.585 17.3842 93.6671 17.1504H95.2736L95.5952 16.4194H94.0185L95.5385 12.9727Z" fill="white"/>
            <path fill-rule="evenodd" clip-rule="evenodd" d="M106.308 16.4334L108.537 11.2441H105.896L103.64 16.4334H98.0531L97.104 18.5981H102.713L100.487 23.7278H103.128L105.383 18.5981H110.992L111.911 16.4334H106.308Z" fill="white"/>
        </g>
        <defs>
            <clipPath id="clip0_2_59__paramount_desktop">
                <rect width="111.917" height="34" fill="white"/>
            </clipPath>
        </defs>
    </symbol>
    <symbol id="paramount_tablet" width="65" height="20" viewBox="0 0 65 20" fill="none" xmlns="http://www.w3.org/2000/svg">
        <path fill-rule="evenodd" clip-rule="evenodd" d="M17.23 6.73518C17.23 4.15185 14.5321 2.91602 11.3257 2.91602C7.89876 2.91602 4.75984 4.44685 3.60629 6.83768C3.28211 7.47623 3.11288 8.18384 3.11262 8.90185C3.10321 9.51781 3.27507 10.1227 3.60629 10.6393C3.91577 11.0537 4.32413 11.3815 4.79303 11.5921C5.26192 11.8028 5.77597 11.8893 6.28692 11.8435C7.86503 11.8435 9.13705 10.966 9.13705 9.41852C9.13815 9.3573 9.1262 9.29657 9.10203 9.24045C9.07785 9.18434 9.04201 9.13416 8.99695 9.09335C8.95189 9.05254 8.89867 9.02205 8.84092 9.00396C8.78317 8.98586 8.72225 8.9806 8.6623 8.98852C8.25503 8.98852 8.15382 9.28102 8.16863 9.41852C8.20513 9.69337 8.18263 9.97296 8.10268 10.2382C8.02274 10.5034 7.88722 10.7481 7.70538 10.9554C7.52355 11.1628 7.29968 11.3279 7.04906 11.4396C6.79844 11.5513 6.52697 11.607 6.25319 11.6027C4.84541 11.6027 4.25135 10.381 4.25135 9.07435C4.25135 6.40768 6.23673 4.65352 8.28958 3.87935C9.25482 3.5137 10.2787 3.33285 11.3092 3.34602C13.6508 3.34602 15.5507 4.25768 15.5507 6.67935C15.5209 7.68082 15.1261 8.63568 14.4424 9.35982C13.7588 10.084 12.8346 10.5261 11.8481 10.601L11.9304 10.326C12.2768 8.79507 12.8671 7.33148 13.678 5.99268C13.7409 5.88199 13.8147 5.77812 13.8985 5.68268L13.78 5.54518C13.5997 5.64979 13.4293 5.77085 13.2707 5.90685C9.40363 8.95185 9.28351 17.5527 4.14275 17.5527C3.96681 17.559 3.79068 17.5476 3.61699 17.5185C3.14858 17.4787 2.71416 17.2548 2.40664 16.8947C2.09911 16.5347 1.9429 16.0671 1.97142 15.5918C1.97142 15.4027 2.03971 15.1277 2.03971 14.9727C2.04314 14.9024 2.03257 14.8321 2.00863 14.766C1.98468 14.6999 1.94786 14.6393 1.90034 14.5879C1.85282 14.5365 1.79559 14.4953 1.73203 14.4668C1.66848 14.4383 1.59991 14.423 1.53041 14.4218H1.48515C1.02686 14.4218 0.840089 14.8002 0.826924 15.316C0.79319 16.8468 1.89654 17.7243 3.60958 17.8993C3.79635 17.8993 3.98313 17.9168 4.18553 17.9168C8.20648 17.9168 10.6666 14.8377 11.7189 11.1052C12.2484 11.0337 12.7712 10.9186 13.2822 10.761C15.1483 10.2452 17.2316 8.97185 17.2316 6.73602" fill="white"/>
        <path fill-rule="evenodd" clip-rule="evenodd" d="M39.7652 10.5659C39.5402 11.9187 39.0248 13.2051 38.2554 14.3342C37.9502 14.7984 37.6795 14.9175 37.4417 14.9175C37.1027 14.9175 37.0179 14.6425 37.0681 14.2509C37.3043 12.9986 37.7952 11.8097 38.5097 10.76C38.8832 10.2442 39.1202 10.0375 39.409 10.0375C39.6805 10.0375 39.7652 10.2784 39.7652 10.5709M24.1265 14.5259C23.9233 14.5259 23.7703 14.4567 23.7703 14.1817C23.9468 13.0984 24.3966 12.0797 25.076 11.2242C25.2773 10.894 25.5497 10.6143 25.8729 10.4059C26.1961 10.1975 26.5616 10.0659 26.9421 10.0209L26.0436 12.05C25.3648 13.615 24.6696 14.5259 24.1265 14.5259ZM15.3063 14.5259C15.1031 14.5259 14.9673 14.4567 14.9673 14.1817C15.1591 13.1031 15.6072 12.088 16.2731 11.2242C16.4743 10.894 16.7467 10.6143 17.0699 10.4059C17.3931 10.1975 17.7586 10.0659 18.1391 10.0209L17.2571 12.05C16.5783 13.58 15.8493 14.5259 15.3063 14.5259ZM55.4878 7.63086H54.0628L53.7575 8.38753L53.198 9.66003H52.5398L52.3366 10.09H53.0318L52.2008 11.93C51.6067 13.2367 50.691 14.5134 50.1652 14.5134C50.0467 14.5134 49.9784 14.4617 49.9784 14.3417C49.9977 14.1508 50.0495 13.9647 50.1315 13.7917C50.301 13.3959 50.5725 12.8284 50.7757 12.3992C51.1322 11.773 51.3898 11.0943 51.5393 10.3875C51.5453 10.2724 51.5268 10.1573 51.485 10.0501C51.4432 9.94282 51.3791 9.84595 51.2971 9.76602C51.2151 9.6861 51.117 9.62499 51.0096 9.58686C50.9022 9.54873 50.7879 9.53446 50.6745 9.54503C50.3269 9.57487 49.9891 9.67736 49.6825 9.84603C49.3759 10.0147 49.1072 10.2459 48.8932 10.525L49.2495 9.66502H47.9067L46.8214 12.1584C46.3969 13.0425 45.5148 14.5009 44.9553 14.5009C44.8369 14.5009 44.7859 14.4317 44.7859 14.3117C44.7974 14.205 44.8251 14.1007 44.8681 14.0025C44.9191 13.8992 45.5634 12.3517 45.5634 12.3517L46.7334 9.61753H45.3083L44.1564 12.2842C43.8174 13.1092 42.9222 14.5025 42.3414 14.5025C42.3166 14.5063 42.2914 14.5047 42.2673 14.4979C42.2432 14.4911 42.2208 14.4792 42.2016 14.463C42.1824 14.4467 42.1669 14.4266 42.1559 14.4038C42.145 14.381 42.1389 14.3562 42.1381 14.3309V14.2967C42.166 14.0868 42.2292 13.8833 42.3249 13.695L42.919 12.3542L44.1531 9.62003H42.7281L42.4565 10.2392C42.3682 10.4822 42.2154 10.6959 42.0149 10.8567C41.8145 11.0176 41.5741 11.1193 41.3203 11.1509C41.0488 11.1509 40.913 11.0475 40.8628 10.9442C40.8619 10.749 40.8213 10.5562 40.7436 10.3776C40.6658 10.199 40.5526 10.0386 40.4109 9.90633C40.2693 9.77404 40.1023 9.67273 39.9202 9.6087C39.7382 9.54467 39.5451 9.51931 39.353 9.53419C38.8289 9.54866 38.3175 9.70044 37.8686 9.97471C37.4198 10.249 37.0487 10.6364 36.7917 11.0992C36.4172 11.6833 36.1312 12.3209 35.9434 12.9909C35.4349 13.8334 34.9083 14.4909 34.4846 14.4909C34.4592 14.4946 34.4333 14.4924 34.4089 14.4842C34.3846 14.476 34.3624 14.4622 34.3443 14.4438C34.3261 14.4254 34.3125 14.403 34.3044 14.3783C34.2963 14.3537 34.2941 14.3274 34.2978 14.3017C34.3319 14.0991 34.3948 13.9026 34.4846 13.7184L35.4176 11.7067C35.6497 11.2622 35.7992 10.7784 35.8586 10.2792C35.8606 10.1772 35.8414 10.0759 35.8022 9.9819C35.7631 9.8879 35.7048 9.8033 35.6312 9.7336C35.5577 9.66389 35.4705 9.61063 35.3753 9.57728C35.2801 9.54393 35.179 9.53124 35.0786 9.54003C34.6963 9.56758 34.3233 9.67317 33.9823 9.85047C33.6412 10.0278 33.3391 10.2731 33.0941 10.5717C33.122 10.4712 33.1334 10.3668 33.1278 10.2625C33.1412 10.1631 33.1315 10.0618 33.0994 9.96681C33.0672 9.87184 33.0136 9.7858 32.9427 9.71558C32.8719 9.64537 32.7858 9.59292 32.6914 9.56243C32.5969 9.53195 32.4967 9.52428 32.3988 9.54003C32.0411 9.57094 31.6941 9.67899 31.3811 9.85693C31.068 10.0349 30.7962 10.2786 30.5838 10.5717L30.9565 9.64336H29.6672L28.5647 12.1534C28.0389 13.32 27.2079 14.4917 26.7331 14.4917C26.6311 14.4917 26.5636 14.44 26.5636 14.3025C26.6356 13.9518 26.7494 13.6112 26.9026 13.2884L28.3614 9.95502C28.4634 9.69669 27.7674 9.53836 26.8853 9.53836C25.9492 9.5853 25.0572 9.95557 24.3578 10.5875C24.077 10.8757 23.7258 11.0833 23.34 11.1892C23.2577 11.1892 23.2215 11.1375 23.2215 11.0859C23.2215 10.8792 23.6962 10.3125 23.6962 9.86503C23.6962 9.65836 23.5942 9.53836 23.3227 9.53836C22.6882 9.6595 22.1236 10.0225 21.7454 10.5525L22.119 9.64086H20.8469L19.7674 12.1484C19.2417 13.315 18.3769 14.5559 17.9186 14.5559C17.8002 14.5559 17.7319 14.4867 17.7319 14.3492C17.806 13.9778 17.9317 13.6189 18.1054 13.2834L19.5469 9.95003C19.649 9.69169 18.9529 9.53336 18.0717 9.53336C17.432 9.57437 16.8093 9.75922 16.249 10.0745C15.6887 10.3897 15.2048 10.8275 14.8324 11.3559C14.1325 12.1748 13.6896 13.1865 13.5603 14.2617C13.5413 14.4085 13.5549 14.5577 13.6003 14.6985C13.6456 14.8392 13.7215 14.9679 13.8223 15.0751C13.9232 15.1822 14.0464 15.2652 14.183 15.3178C14.3197 15.3704 14.4662 15.3914 14.6119 15.3792C14.9742 15.3382 15.3232 15.2168 15.6339 15.0237C15.9447 14.8305 16.2095 14.5704 16.4097 14.2617C16.3845 14.3575 16.3674 14.4554 16.3586 14.5542C16.3586 15.0359 16.5454 15.3792 17.1222 15.3792C17.469 15.3242 17.8007 15.1966 18.0961 15.0044C18.3914 14.8123 18.644 14.5599 18.8377 14.2634L18.414 15.2775H19.788L21.1415 12.1675C21.5825 11.1534 22.091 10.6375 22.2267 10.6375C22.2778 10.6375 22.309 10.655 22.309 10.6892C22.309 10.7925 22.0885 11.085 22.0885 11.3425C22.0885 11.6 22.2243 11.8067 22.6143 11.8067C22.9426 11.7815 23.2585 11.6688 23.53 11.48C22.8734 12.269 22.4658 13.2395 22.36 14.2659C22.3381 14.4132 22.3497 14.5636 22.3939 14.7057C22.4382 14.8478 22.514 14.9777 22.6155 15.0856C22.7169 15.1934 22.8414 15.2763 22.9794 15.3279C23.1174 15.3795 23.2652 15.3985 23.4116 15.3834C23.7795 15.3199 24.1306 15.1803 24.4429 14.9733C24.7552 14.7662 25.022 14.4962 25.2266 14.18C25.207 14.2937 25.1957 14.4088 25.1929 14.5242C25.183 14.6352 25.1964 14.747 25.2322 14.8524C25.2681 14.9578 25.3255 15.0543 25.4009 15.1355C25.4762 15.2168 25.5676 15.2809 25.6692 15.3238C25.7708 15.3666 25.8802 15.3872 25.9902 15.3842C26.5842 15.3842 27.0417 15.0059 27.6357 14.2842L27.1947 15.2842H28.6198L29.9091 12.3092C30.4686 11.02 31.2494 10.3317 31.6221 10.3317C31.7044 10.3142 31.7916 10.4009 31.8089 10.4867V10.5209C31.7875 10.6687 31.7477 10.8132 31.6904 10.9509L29.8243 15.3009H31.2831L32.5889 12.275C33.1648 10.9684 33.7934 10.3317 34.2509 10.3317C34.4031 10.3317 34.4541 10.4009 34.4541 10.555C34.4429 10.7214 34.4028 10.8844 34.3357 11.0367L33.0636 13.7867C32.9412 14.0458 32.8665 14.3254 32.8431 14.6117C32.8431 15.0417 33.0636 15.4025 33.7079 15.4025C34.5216 15.4025 35.1494 14.7667 35.8619 13.8375V14.0267C35.8615 14.2271 35.903 14.4253 35.9838 14.6082C36.0645 14.7911 36.1827 14.9546 36.3304 15.0878C36.4782 15.2211 36.6522 15.3211 36.8409 15.3812C37.0296 15.4414 37.2288 15.4603 37.4252 15.4367C38.731 15.4367 39.766 14.5425 40.4103 13.0984C40.6449 12.5868 40.7996 12.0414 40.8686 11.4817C41.0105 11.552 41.1689 11.5808 41.326 11.565C41.5402 11.5752 41.7525 11.5213 41.9366 11.41L41.716 11.91C41.4618 12.46 41.173 13.0617 40.9525 13.5767C40.8087 13.8788 40.7225 14.2056 40.6983 14.54C40.6867 14.6588 40.701 14.7786 40.7401 14.8912C40.7793 15.0037 40.8423 15.1062 40.9247 15.1914C41.0071 15.2767 41.107 15.3426 41.2173 15.3845C41.3275 15.4265 41.4456 15.4434 41.563 15.4342C41.9575 15.359 42.3327 15.2027 42.6652 14.975C42.9978 14.7472 43.2807 14.4528 43.4966 14.11C43.4619 14.2682 43.4448 14.4297 43.4455 14.5917C43.4455 15.0217 43.5813 15.4342 44.1581 15.4342C44.5109 15.3859 44.8489 15.2591 45.1476 15.0629C45.4464 14.8666 45.6985 14.6058 45.8859 14.2992L45.4622 15.2992H46.8873L48.0235 12.6684C48.6678 11.1892 49.3128 10.295 49.9233 10.295C49.9719 10.294 50.0193 10.3108 50.0566 10.3424C50.094 10.3739 50.1188 10.4181 50.1266 10.4667V10.5184C49.9633 11.0766 49.7355 11.6134 49.4478 12.1175C49.2153 12.6042 48.9958 13.0972 48.7895 13.5959C48.6381 13.901 48.5515 14.2348 48.5353 14.5759C48.525 14.6845 48.5385 14.7942 48.5749 14.8969C48.6113 14.9997 48.6697 15.093 48.7459 15.1703C48.8221 15.2475 48.9142 15.3067 49.0156 15.3437C49.117 15.3807 49.2253 15.3945 49.3326 15.3842C49.7629 15.3106 50.1729 15.1452 50.5354 14.8992C50.898 14.6531 51.2048 14.3318 51.4356 13.9567C51.3357 14.25 51.2843 14.5581 51.2834 14.8684C51.2641 15.0334 51.2811 15.2006 51.3332 15.3582C51.3853 15.5157 51.4712 15.6596 51.5846 15.7796C51.6981 15.8996 51.8364 15.9926 51.9896 16.052C52.1428 16.1115 52.3071 16.1358 52.4707 16.1234C52.9339 16.1179 53.3841 15.9677 53.76 15.6934C54.2836 15.2782 54.7364 14.7788 55.1003 14.215L54.846 13.9742C54.5412 14.4401 54.1696 14.8574 53.7435 15.2125C53.5399 15.3903 53.2831 15.4934 53.0145 15.505C52.7093 15.505 52.5209 15.35 52.5209 14.9717C52.5837 14.4163 52.7386 13.8757 52.9791 13.3725C52.9791 13.3725 53.3692 12.4784 53.7427 11.6359C54.048 10.9134 54.3532 10.2259 54.4009 10.0884H55.334L55.5207 9.65836H54.605L55.4878 7.63086Z" fill="white"/>
        <path fill-rule="evenodd" clip-rule="evenodd" d="M61.7426 9.66578L63.0369 6.61328H61.5032L60.1933 9.66578H56.9482L56.397 10.9391H59.6544L58.3618 13.9566H59.8954L61.2053 10.9391H64.4627L64.9967 9.66578H61.7426Z" fill="white"/>
    </symbol>
    <symbol id="search_desktop" width="40" height="40" viewBox="0 0 40 40" fill="none" xmlns="http://www.w3.org/2000/svg">
        <g opacity="0.997">
            <path d="M26.6971 27.9629L33.5729 34.9486" stroke="white" stroke-width="1.5" stroke-miterlimit="10" stroke-linecap="round"/>
            <path d="M18.5714 30.3585C25.0805 30.3585 30.3571 25.0819 30.3571 18.5728C30.3571 12.0638 25.0805 6.78711 18.5714 6.78711C12.0623 6.78711 6.78571 12.0638 6.78571 18.5728C6.78571 25.0819 12.0623 30.3585 18.5714 30.3585Z" stroke="white" stroke-width="1.5"/>
        </g>
    </symbol>
    <symbol id="search_mobile" width="18" height="18" viewBox="0 0 18 18" fill="none" xmlns="http://www.w3.org/2000/svg">
        <g opacity="0.997">
            <path d="M12.0137 12.584L15.1078 15.7276" stroke="white" stroke-width="1.5" stroke-miterlimit="10" stroke-linecap="round"/>
            <path d="M8.35715 13.6618C11.2862 13.6618 13.6607 11.2873 13.6607 8.35826C13.6607 5.42918 11.2862 3.05469 8.35715 3.05469C5.42806 3.05469 3.05357 5.42918 3.05357 8.35826C3.05357 11.2873 5.42806 13.6618 8.35715 13.6618Z" stroke="white" stroke-width="1.5"/>
        </g>
    </symbol>
    <symbol id="search_tablet" width="24" height="24" viewBox="0 0 24 24" fill="none" xmlns="http://www.w3.org/2000/svg">
        <g opacity="0.997">
            <path d="M16.0183 16.7773L20.1437 20.9688" stroke="white" stroke-width="1.5" stroke-miterlimit="10" stroke-linecap="round"/>
            <path d="M11.1429 18.2132C15.0483 18.2132 18.2143 15.0472 18.2143 11.1417C18.2143 7.2363 15.0483 4.07031 11.1429 4.07031C7.23741 4.07031 4.07143 7.2363 4.07143 11.1417C4.07143 15.0472 7.23741 18.2132 11.1429 18.2132Z" stroke="white" stroke-width="1.5"/>
        </g>
    </symbol>
    <symbol id="show_desktop" width="36" height="36" viewBox="0 0 36 36" fill="none" xmlns="http://www.w3.org/2000/svg">
        <g clip-path="url(#clip0_15_429__show_desktop)">
            <path d="M29.0122 11.9375L24.4987 16.451C24.7762 17.5627 24.7615 18.7273 24.4556 19.8316C24.1498 20.9358 23.5633 21.9421 22.7533 22.7525C21.9433 23.563 20.9372 24.15 19.8331 24.4565C18.7291 24.763 17.5646 24.7785 16.4527 24.5015L13.3867 27.5675C14.8847 28.0109 16.4384 28.2367 18.0006 28.238C21.319 28.1555 24.5499 27.1556 27.3348 25.3491C30.1196 23.5426 32.3497 21.0001 33.7777 18.0035C32.5958 15.6928 30.9775 13.6329 29.0122 11.9375Z" fill="#A6A6A6"/>
            <path d="M27.2582 10.6525L25.0826 9.38967C22.8738 8.32379 20.4536 7.76809 18.001 7.76367C14.6822 7.84616 11.4512 8.84625 8.66605 10.653C5.88094 12.4598 3.65075 15.0027 2.22266 17.9997C3.77315 21.0497 6.09573 23.6402 8.95911 25.5132L11 26.5005L13.5 27.5005L16.5 24.5005L24.5 16.5L29 12.0005L27.2582 10.6525ZM18.001 14.6247C17.4267 14.621 16.8611 14.765 16.3583 15.0427C15.8555 15.3204 15.4325 15.7225 15.1298 16.2106C14.827 16.6987 14.6547 17.2564 14.6292 17.8302C14.6038 18.404 14.7262 18.9747 14.9846 19.4877L15.5 20.5005L17 21.5005H19L20.5 20.5005L16.5 24.5005C11 22.5005 11.3052 19.4001 11.3036 18.0012C11.3036 16.2253 12.0091 14.5221 13.2648 13.2664C14.5206 12.0106 16.2237 11.3052 17.9996 11.3052C19.398 11.307 20.7592 11.7559 21.8845 12.5862L23.5 14L24.5 16.5L20.5 20.5005C23 15.5005 18.5169 14.6286 18.001 14.6247Z" fill="#A6A6A6"/>
        </g>
        <defs>
            <clipPath id="clip0_15_429__show_desktop">
                <rect width="36" height="36" fill="white"/>
            </clipPath>
        </defs>
    </symbol>
    <symbol id="show_mobile" width="20" height="20" viewBox="0 0 20 20" fill="none" xmlns="http://www.w3.org/2000/svg">
        <g clip-path="url(#clip0_97_5093__show_mobile)">
            <path d="M16.1183 6.63086L13.6108 9.13836C13.765 9.75597 13.7568 10.403 13.5869 11.0164C13.417 11.6299 13.0912 12.189 12.6412 12.6392C12.1912 13.0895 11.6322 13.4156 11.0188 13.5858C10.4055 13.7561 9.75853 13.7647 9.14084 13.6109L7.4375 15.3142C8.26969 15.5605 9.1329 15.686 10.0008 15.6867C11.8443 15.6409 13.6393 15.0854 15.1864 14.0817C16.7336 13.0781 17.9725 11.6656 18.7658 10.0009C18.1092 8.71713 17.2101 7.57272 16.1183 6.63086Z" fill="#A6A6A6"/>
            <path d="M13.9353 5.2162C12.7082 4.62404 11.3636 4.31496 10.0011 4.3125C8.15734 4.35833 6.3623 4.91393 4.81501 5.9177C3.26773 6.92147 2.02874 8.33418 1.23535 9.99917C2.09674 11.6936 3.38706 13.1328 4.97782 14.1733L6.5 15L8 15.5L10.0003 12.1592L11.5 11.5L12 10L13.7781 9.11097L16.5 7L15.5 6L13.9353 5.2162ZM10.0011 8.12417C9.68203 8.12215 9.36781 8.20212 9.08849 8.3564C8.80917 8.51068 8.57417 8.7341 8.40596 9.00526C8.23776 9.27642 8.14202 9.58624 8.1279 9.90502C8.11378 10.2238 8 11.5 10.0003 12.1592L9.13696 13.6011L8 13L6.99198 12.1592C6.53059 11.5337 6.28122 10.7772 6.28031 10C6.28031 9.0134 6.67226 8.0672 7.36989 7.36956C8.06753 6.67193 9.0137 6.28 10.0003 6.28C10.7772 6.28103 13.4811 7.2879 13.6517 9.17417L12 10C12 8.5 10.2877 8.12637 10.0011 8.12417Z" fill="#A6A6A6"/>
        </g>
        <defs>
            <clipPath id="clip0_97_5093__show_mobile">
                <rect width="20" height="20" fill="white"/>
            </clipPath>
        </defs>
    </symbol>
</svg>