<svg width="50" height="50" viewBox="0 0 50 50" fill="none" xmlns="http://www.w3.org/2000/svg">
<g clip-path="url(#clip0_103_5813)">
<path d="M38.3284 39.8867H11.1074V19.4707H38.3284V39.8857V39.8867ZM24.7594 26.4427C24.229 26.4427 23.7203 26.6534 23.3452 27.0285C22.9701 27.4036 22.7594 27.9123 22.7594 28.4427V31.5707C22.7594 32.1011 22.9701 32.6098 23.3452 32.9849C23.7203 33.36 24.229 33.5707 24.7594 33.5707H24.8304C25.3609 33.5707 25.8696 33.36 26.2446 32.9849C26.6197 32.6098 26.8304 32.1011 26.8304 31.5707V28.4437C26.8304 27.9133 26.6197 27.4046 26.2446 27.0295C25.8696 26.6544 25.3609 26.4437 24.8304 26.4437L24.7594 26.4427Z" fill="white"/>
<path d="M24.7943 9.14062C26.9537 9.14063 29.0247 9.99844 30.5516 11.5254C32.0785 13.0523 32.9363 15.1232 32.9363 17.2826V22.3716C32.9363 26.8716 16.8573 23.1366 16.6523 22.3716V17.2826C16.6523 15.1232 17.5102 13.0523 19.0371 11.5254C20.564 9.99844 22.635 9.14063 24.7943 9.14062V9.14062Z" stroke="white" stroke-width="4"/>
</g>
<defs>
<clipPath id="clip0_103_5813">
<rect width="50" height="50" fill="white"/>
</clipPath>
</defs>
</svg>
