<svg width="36" height="36" viewBox="0 0 36 36" fill="none" xmlns="http://www.w3.org/2000/svg">
<g clip-path="url(#clip0_15_429)">
<path d="M29.0122 11.9375L24.4987 16.451C24.7762 17.5627 24.7615 18.7273 24.4556 19.8316C24.1498 20.9358 23.5633 21.9421 22.7533 22.7525C21.9433 23.563 20.9372 24.15 19.8331 24.4565C18.7291 24.763 17.5646 24.7785 16.4527 24.5015L13.3867 27.5675C14.8847 28.0109 16.4384 28.2367 18.0006 28.238C21.319 28.1555 24.5499 27.1556 27.3348 25.3491C30.1196 23.5426 32.3497 21.0001 33.7777 18.0035C32.5958 15.6928 30.9775 13.6329 29.0122 11.9375Z" fill="#A6A6A6"/>
<path d="M27.2582 10.6525L25.0826 9.38967C22.8738 8.32379 20.4536 7.76809 18.001 7.76367C14.6822 7.84616 11.4512 8.84625 8.66605 10.653C5.88094 12.4598 3.65075 15.0027 2.22266 17.9997C3.77315 21.0497 6.09573 23.6402 8.95911 25.5132L11 26.5005L13.5 27.5005L16.5 24.5005L24.5 16.5L29 12.0005L27.2582 10.6525ZM18.001 14.6247C17.4267 14.621 16.8611 14.765 16.3583 15.0427C15.8555 15.3204 15.4325 15.7225 15.1298 16.2106C14.827 16.6987 14.6547 17.2564 14.6292 17.8302C14.6038 18.404 14.7262 18.9747 14.9846 19.4877L15.5 20.5005L17 21.5005H19L20.5 20.5005L16.5 24.5005C11 22.5005 11.3052 19.4001 11.3036 18.0012C11.3036 16.2253 12.0091 14.5221 13.2648 13.2664C14.5206 12.0106 16.2237 11.3052 17.9996 11.3052C19.398 11.307 20.7592 11.7559 21.8845 12.5862L23.5 14L24.5 16.5L20.5 20.5005C23 15.5005 18.5169 14.6286 18.001 14.6247Z" fill="#A6A6A6"/>
</g>
<defs>
<clipPath id="clip0_15_429">
<rect width="36" height="36" fill="white"/>
</clipPath>
</defs>
</svg>
