<svg width="20" height="20" viewBox="0 0 20 20" fill="none" xmlns="http://www.w3.org/2000/svg">
<g clip-path="url(#clip0_97_5093)">
<path d="M16.1183 6.63086L13.6108 9.13836C13.765 9.75597 13.7568 10.403 13.5869 11.0164C13.417 11.6299 13.0912 12.189 12.6412 12.6392C12.1912 13.0895 11.6322 13.4156 11.0188 13.5858C10.4055 13.7561 9.75853 13.7647 9.14084 13.6109L7.4375 15.3142C8.26969 15.5605 9.1329 15.686 10.0008 15.6867C11.8443 15.6409 13.6393 15.0854 15.1864 14.0817C16.7336 13.0781 17.9725 11.6656 18.7658 10.0009C18.1092 8.71713 17.2101 7.57272 16.1183 6.63086Z" fill="#A6A6A6"/>
<path d="M13.9353 5.2162C12.7082 4.62404 11.3636 4.31496 10.0011 4.3125C8.15734 4.35833 6.3623 4.91393 4.81501 5.9177C3.26773 6.92147 2.02874 8.33418 1.23535 9.99917C2.09674 11.6936 3.38706 13.1328 4.97782 14.1733L6.5 15L8 15.5L10.0003 12.1592L11.5 11.5L12 10L13.7781 9.11097L16.5 7L15.5 6L13.9353 5.2162ZM10.0011 8.12417C9.68203 8.12215 9.36781 8.20212 9.08849 8.3564C8.80917 8.51068 8.57417 8.7341 8.40596 9.00526C8.23776 9.27642 8.14202 9.58624 8.1279 9.90502C8.11378 10.2238 8 11.5 10.0003 12.1592L9.13696 13.6011L8 13L6.99198 12.1592C6.53059 11.5337 6.28122 10.7772 6.28031 10C6.28031 9.0134 6.67226 8.0672 7.36989 7.36956C8.06753 6.67193 9.0137 6.28 10.0003 6.28C10.7772 6.28103 13.4811 7.2879 13.6517 9.17417L12 10C12 8.5 10.2877 8.12637 10.0011 8.12417Z" fill="#A6A6A6"/>
</g>
<defs>
<clipPath id="clip0_97_5093">
<rect width="20" height="20" fill="white"/>
</clipPath>
</defs>
</svg>
